<!DOCTYPE svg PUBLIC "-//W3C//DTD SVG 1.1//EN" "http://www.w3.org/Graphics/SVG/1.1/DTD/svg11.dtd">
<!-- Uploaded to: SVG Repo, www.svgrepo.com, Transformed by: SVG Repo Mixer Tools -->
<svg height="64px" width="64px" version="1.1" id="Layer_1" xmlns="http://www.w3.org/2000/svg" xmlns:xlink="http://www.w3.org/1999/xlink" viewBox="0 0 390.206 390.206" xml:space="preserve" fill="#000000">
<g id="SVGRepo_bgCarrier" stroke-width="0"/>
<g id="SVGRepo_tracerCarrier" stroke-linecap="round" stroke-linejoin="round"/>
<g id="SVGRepo_iconCarrier"> <path style="fill:#700d7d;" d="M314.893,205.964h9.762c-5.43,63.418-55.79,113.778-118.691,118.691v-9.762 c0-5.947-4.913-10.861-10.861-10.861s-10.861,4.849-10.861,10.861v9.762c-63.418-5.43-113.778-55.79-118.691-118.691h9.762 c5.947,0,10.861-4.913,10.861-10.861s-4.848-10.861-10.861-10.861h-9.762c5.43-62.901,55.79-113.778,118.691-118.691v9.762 c0,5.947,4.913,10.861,10.861,10.861s10.861-4.848,10.861-10.861v-9.762c63.418,5.43,113.778,55.79,118.691,118.691h-9.762 c-5.948,0-10.861,4.913-10.861,10.861S308.881,205.964,314.893,205.964z"/> <path style="fill:#b326b5;" d="M195.103,303.515c-59.604,0-108.412-48.808-108.412-108.412S135.499,86.691,195.103,86.691 s108.412,48.808,108.412,108.412S254.707,303.515,195.103,303.515z"/> <g> <path style="fill:#d15be1;" d="M131.168,21.657l-13.576,42.796c23.273-14.093,49.842-21.139,77.511-21.139 s54.174,7.628,77.511,21.204l-13.576-42.796C259.038,21.657,131.168,21.657,131.168,21.657z"/> <path style="fill:#d15be1;" d="M195.103,346.828c-27.669,0-54.174-7.564-77.511-21.139l13.576,42.796h127.935l13.576-42.796 C249.277,339.265,222.772,346.828,195.103,346.828z"/> </g> <g> <path style="fill:#b61fc1;" d="M195.103,205.964h32c5.947,0,10.861-4.848,10.861-10.861c0-5.947-4.848-10.861-10.861-10.861 h-21.139v-54.756c0-5.947-4.848-10.861-10.861-10.861c-5.947,0-10.861,4.848-10.861,10.861v65.616 C184.242,201.051,189.156,205.964,195.103,205.964z"/> <path style="fill:#b61fc1;" d="M346.828,195.103c0-41.762-16.808-79.127-43.895-106.796L277.463,7.564 C275.846,3.232,272.032,0,267.184,0H123.022c-4.848,0-8.663,3.232-10.279,7.564L87.273,88.307 c-27.152,27.669-43.895,65.034-43.895,106.796s16.808,79.127,43.895,106.796l25.471,80.743c1.616,4.331,5.43,7.564,10.279,7.564 h143.644c4.848,0,8.663-3.232,10.279-7.564l25.471-80.743C330.085,274.23,346.828,236.865,346.828,195.103z M117.592,64.517 l13.576-42.796h127.935l13.576,42.796l0,0c-22.756-13.576-49.325-21.139-77.511-21.139 C166.917,43.378,140.347,50.941,117.592,64.517L117.592,64.517z M75.313,184.242h-9.762 c5.43-62.836,55.855-113.778,118.691-118.691v9.762c0,5.947,4.848,10.861,10.861,10.861c5.947,0,10.861-4.848,10.861-10.861v-9.762 c63.418,5.43,113.842,55.855,118.691,118.691h-9.762c-5.948,0-10.861,4.848-10.861,10.861c0,5.947,4.849,10.861,10.861,10.861 h9.762c-5.43,63.418-55.855,113.778-118.691,118.691v-9.762c0-5.947-4.848-10.861-10.861-10.861 c-5.947,0-10.861,4.849-10.861,10.861v9.762c-63.418-5.43-113.778-55.855-118.691-118.691h9.762 c5.947,0,10.861-4.848,10.861-10.861C86.174,189.156,81.261,184.242,75.313,184.242z M259.038,368.549H131.168l-13.576-42.796l0,0 c22.756,13.576,49.325,21.657,77.511,21.657s54.756-7.564,77.511-21.139l0,0L259.038,368.549z"/> <path style="fill:#b61fc1;" d="M164.202,269.899h61.802c5.947,0,10.861-4.848,10.861-10.861c0-5.947-4.848-10.861-10.861-10.861 h-61.802c-5.947,0-10.861,4.848-10.861,10.861S158.255,269.899,164.202,269.899z"/> </g> </g>
</svg>